<svg width="178" height="134" viewBox="0 0 178 134" fill="none" xmlns="http://www.w3.org/2000/svg">
<path fill-rule="evenodd" clip-rule="evenodd" d="M4.02695 100.84H175.747V23.4409C175.747 12.7932 167.054 4.08301 156.427 4.08301H23.3466C12.72 4.08301 4.02695 12.7932 4.02695 23.4409V100.84V100.84Z" fill="white" stroke="black" stroke-width="0.216" stroke-miterlimit="22.9256"/>
<path fill-rule="evenodd" clip-rule="evenodd" d="M2.2691 100.84H176.338V116.275C176.338 124.761 169.403 131.71 160.933 131.71H17.6737C9.20438 131.71 2.2691 124.761 2.2691 116.275V100.84Z" fill="#EF7D00" stroke="black" stroke-width="0.216" stroke-miterlimit="22.9256"/>
<path d="M21.6367 2.32153H156.363C167.022 2.32153 175.731 11.0638 175.731 21.7274V112.304C175.731 122.984 167.006 131.71 156.363 131.71H21.6367C10.9781 131.71 2.2691 122.968 2.2691 112.304V21.7274C2.2691 11.0478 10.9781 2.32153 21.6367 2.32153Z" stroke="#312783" stroke-width="2.8347" stroke-miterlimit="22.9256"/>
<path d="M113.889 91.4417L120.568 81.6426H123.94L130.492 91.4417H132.01L124.34 80.5378H120.233L112.626 91.4417H113.889Z" fill="#004380"/>
<path d="M134.023 87.9832C134.023 89.8405 135.446 91.4577 137.331 91.4577H147.319C149.077 91.4577 150.722 90.2248 150.722 88.3835V80.5378H149.3V88.3194C149.3 89.3442 148.565 90.2408 147.51 90.2408H137.347C136.261 90.2408 135.43 89.3121 135.43 88.2233V80.5378H134.039V87.9832H134.023Z" fill="#004380"/>
<path d="M110.836 88.0472C110.836 87.1186 110.565 86.8303 110.341 86.7503L110.117 86.6542L110.405 86.4621C110.9 86.1258 110.836 85.2932 110.836 85.1972V83.4199C110.836 81.8348 109.542 80.5378 107.96 80.5378H94.3931V91.4256L95.7834 91.3936V81.6907H107.624C108.615 81.6907 109.478 82.4592 109.478 83.484V85.2452C109.478 85.7416 109.222 86.366 108.951 86.5101L108.727 86.6382L108.919 86.7983C109.191 87.0545 109.414 87.3267 109.414 88.0472V91.3936H110.836V88.0472Z" fill="#004380"/>
<path d="M74.5142 80.5378L74.5461 91.4256H87.4579C89.1038 91.4256 90.7018 90.3048 90.7018 88.5756V83.4039C90.7018 81.6426 89.0559 80.5539 87.394 80.5539H74.5142V80.5378Z" fill="#004380"/>
<path d="M70.8547 91.4415V90.2567H56.0733V81.7065H70.8547V80.5537H54.8429V91.4415H70.8547Z" fill="#004380"/>
<path d="M17.0346 88.3672C17.0666 87.8068 17.0346 83.4357 17.0346 83.3396C17.1305 82.3469 17.4341 81.6584 18.9203 81.6584H31.6562V80.5056H18.9522C17.3223 80.5056 15.7722 81.6584 15.7722 83.3557V88.3512C15.7722 90.0324 17.1625 91.3934 18.8404 91.3934H31.6722V90.2406H18.8404C17.7697 90.2246 17.0346 89.36 17.0346 88.3672Z" fill="#004380"/>
<path d="M128.287 91.4415H129.837L127.743 88.4634H116.637L114.592 91.4095H116.206L117.26 89.6162H127.056L128.287 91.4415Z" fill="#004380"/>
<path d="M56.7764 85.6454H70.8707V84.3485H57.9749V83.4519H70.8707V82.3311H56.7764V85.6454Z" fill="#004380"/>
<path d="M56.7125 86.3337V89.5841L70.8707 89.6161V88.4152L57.9749 88.4312V87.4225H70.8707V86.3337H56.7125Z" fill="#004380"/>
<path d="M17.7537 88.3351C17.7857 88.9916 18.1852 89.6 18.8084 89.6321H31.6722V88.4152H18.8563V83.4196H31.6562V82.2988H18.8244C18.1372 82.2988 17.7377 82.6991 17.7377 83.4196V88.3351H17.7537Z" fill="#004380"/>
<path d="M87.394 81.7065C88.3847 81.7065 89.3755 82.363 89.3755 83.4038V88.3993C89.3755 89.4881 88.4487 90.2887 87.394 90.2887H75.8086V81.7065H87.394Z" fill="white"/>
<path d="M147.319 88.4475H137.235V80.5378H136.037V88.3514C136.037 89.0399 136.532 89.6484 137.235 89.6484H147.319C148.038 89.6484 148.645 89.088 148.645 88.3835V80.5378H147.319V88.4475Z" fill="#004380"/>
<path d="M96.3428 91.4094H97.765V88.063H107.449V91.4414H108.903V88.031C108.903 87.2624 108.2 86.9102 107.449 86.9102H96.3428V91.4094Z" fill="#004380"/>
<path d="M107.497 86.414C108.216 86.414 108.887 85.9496 108.887 85.2131V83.724C108.887 82.9875 108.296 82.363 107.561 82.363H96.3748V86.43H107.497V86.414Z" fill="#004380"/>
<path d="M87.4579 82.3469H76.4477V89.6642H87.4259C88.0971 89.6642 88.7522 89.1678 88.7522 88.4633V83.4037C88.7522 82.7152 88.0811 82.3469 87.4579 82.3469Z" fill="#004380"/>
<path d="M37.233 85.6934H49.4097V80.5537L48.2432 80.5697V84.3324H38.3996V80.5697H37.233V85.6934Z" fill="#004380"/>
<path d="M37.233 86.3179V91.4575H38.3996V87.3906H48.2432V91.4896L49.4097 91.4575V86.3179H37.233Z" fill="#004380"/>
<path d="M123.684 82.3311H120.872L117.164 87.7589H127.312L123.684 82.3311Z" fill="#004380"/>
<path d="M87.4098 83.4519V88.4475H77.7899V83.4519H87.4098Z" fill="white"/>
<path d="M97.7648 83.4519H107.481L107.449 85.2772H97.7648V83.4519Z" fill="white"/>
<path d="M125.059 86.414H119.561L121.383 83.4038H123.141L125.059 86.414Z" fill="white"/>
<path d="M87.1225 60.2671L73.3318 76.7269H82.2326L94.665 61.8202L107.561 76.7269L116.238 76.6628L102.016 60.2671H87.1225Z" fill="#F1872D"/>
<path d="M71.9894 54.4871L53.5966 76.679H64.7825L83.3671 54.4871H71.9894Z" fill="#F1872D"/>
<path d="M113.937 51.1085L123.013 69.3936H138.066V58.3938H121.207L117.324 51.0925L113.937 51.1085Z" fill="#F1872D"/>
<path d="M91.1174 34.905L103.214 49.2513H112.722L100.673 34.905H91.1174Z" fill="#F1872D"/>
<path d="M91.1174 37.1306V52.0373L83.5589 58.4899H102.016L102.128 50.3401L91.1174 37.1306Z" fill="#F1872D"/>
<path d="M51.6309 65.1667L41.9311 76.679H50.6401L60.5157 65.1667H51.6309Z" fill="#F1872D"/>
<path d="M51.6311 46.065L63.6 60.8115L68.5698 55.1115L61.0912 46.033L51.6311 46.065Z" fill="#F1872D"/>
<path d="M73.4116 30.4058L86.1476 46.065H88.96V37.5149L83.0954 30.3738L73.4116 30.4058Z" fill="#F1872D"/>
<path d="M78.6371 15.2429C74.9617 15.2429 71.9734 18.2371 71.9734 21.9197C71.9734 25.6023 74.9617 28.5965 78.6371 28.5965C82.3124 28.5965 85.3007 25.6023 85.3007 21.9197C85.3167 18.2371 82.3124 15.2429 78.6371 15.2429Z" fill="#F1872D"/>
<path d="M72.9323 32.2952L72.9483 52.6457H84.342V46.2091L72.9323 32.2952Z" fill="#F1872D"/>
<path d="M96.4227 22.1438C93.3546 22.1438 90.8457 24.6576 90.8457 27.7318C90.8457 30.806 93.3546 33.3198 96.4227 33.3198C99.4909 33.3198 102 30.806 102 27.7318C102 24.6416 99.4909 22.1438 96.4227 22.1438Z" fill="#F1872D"/>
<path d="M51.7909 48.6748L51.8069 63.2933L61.9062 63.2613L62.7371 62.2365L51.7909 48.6748Z" fill="#F1872D"/>
<path d="M57.2238 34.4888C54.4753 34.4888 52.2221 36.7464 52.2221 39.5004C52.2221 42.2543 54.4593 44.5119 57.2238 44.5119C59.9724 44.5119 62.2255 42.2703 62.2255 39.5004C62.2255 36.7304 59.9724 34.4888 57.2238 34.4888Z" fill="#F1872D"/>
<path d="M124.228 45.8728C121.815 45.8728 119.849 47.8422 119.849 50.2599C119.849 52.6777 121.815 54.6471 124.228 54.6471C126.641 54.6471 128.606 52.6777 128.606 50.2599C128.606 47.8422 126.641 45.8728 124.228 45.8728Z" fill="#F1872D"/>
<path d="M135.669 70.5947C134.359 70.5947 133.288 71.6675 133.288 72.9804C133.288 74.2934 134.359 75.3661 135.669 75.3661C136.98 75.3661 138.05 74.2934 138.05 72.9804C138.05 71.6675 136.98 70.5947 135.669 70.5947Z" fill="#F1872D"/>
<path d="M126.113 70.5947C124.803 70.5947 123.732 71.6675 123.732 72.9804C123.732 74.2934 124.803 75.3661 126.113 75.3661C127.423 75.3661 128.494 74.2934 128.494 72.9804C128.494 71.6675 127.423 70.5947 126.113 70.5947Z" fill="#F1872D"/>
<path d="M111.06 51.1086C110.021 51.1086 109.174 51.9572 109.174 52.998C109.174 54.0387 110.021 54.8873 111.06 54.8873C112.099 54.8873 112.946 54.0387 112.946 52.998C112.946 51.9572 112.099 51.1086 111.06 51.1086Z" fill="#F1872D"/>
<path d="M155.948 80.5537V91.4255H157.242V80.5537H155.948Z" fill="#004380"/>
<path d="M155.149 91.4255V80.5217H153.79L153.822 91.4255H155.149Z" fill="#004380"/>
<path d="M36.6737 91.4896V80.5698H35.5072V91.4576L36.6737 91.4896Z" fill="#004380"/>
<path d="M50.129 80.5537V91.3935H51.1997V80.5537H50.129Z" fill="#004380"/>
<path d="M27.2617 0.0160115H27.2937V0.0320229H27.3097V0.0160115H27.3256V0H27.3097V0.0160115H27.2937V0H27.2617V0.0160115Z" fill="white"/>
<path d="M27.3736 0.0160115V0H27.3577V0.0160115H27.3736V0.0480344H27.4056V0H27.3896V0.0160115H27.3736Z" fill="white"/>
<path d="M27.2617 0.0799763H27.2937V0.0639648H27.2617V0.0799763Z" fill="white"/>
<path d="M27.3896 0.0959878V0.0639648H27.3736V0.0799763H27.3576V0.0639648H27.3257V0.0799763H27.3576V0.128011H27.3736V0.0959878H27.3896Z" fill="white"/>
<path d="M2.2691 100.84H175.747" stroke="#312783" stroke-width="2.8347" stroke-miterlimit="22.9256"/>
<path d="M25.4079 117.06L28.9874 117.524C28.7956 118.373 28.4601 119.109 28.0126 119.734C27.5652 120.358 26.9899 120.839 26.2868 121.191C25.5837 121.511 24.7048 121.687 23.6182 121.687C22.5795 121.687 21.7166 121.575 21.0134 121.351C20.3263 121.127 19.7191 120.775 19.2237 120.278C18.7283 119.782 18.3288 119.205 18.0572 118.533C17.7695 117.86 17.6257 116.98 17.6257 115.875C17.6257 114.722 17.8015 113.761 18.1371 113.009C18.3927 112.449 18.7283 111.936 19.1758 111.504C19.6232 111.072 20.0706 110.719 20.5181 110.511C21.2531 110.175 22.196 109.999 23.3305 109.999C24.9285 109.999 26.159 110.319 26.9899 110.975C27.8369 111.632 28.4281 112.577 28.7637 113.842L25.2162 114.37C25.1043 113.89 24.8966 113.537 24.6089 113.297C24.3213 113.057 23.9218 112.929 23.4264 112.929C22.8032 112.929 22.2918 113.185 21.9083 113.697C21.5248 114.21 21.333 114.978 21.333 116.003C21.333 116.916 21.5248 117.62 21.9083 118.101C22.2918 118.581 22.7712 118.821 23.3625 118.821C23.8579 118.821 24.2733 118.677 24.6089 118.389C24.9924 118.101 25.2321 117.652 25.4079 117.06Z" fill="white"/>
<path d="M41.0522 121.431H37.5366V119.621C37.0092 120.358 36.4819 120.902 35.9546 121.207C35.4272 121.527 34.7721 121.687 33.9891 121.687C32.9504 121.687 32.1354 121.335 31.5601 120.63C30.9689 119.926 30.6812 118.837 30.6812 117.364V110.239H34.4684V116.387C34.4684 117.092 34.5803 117.588 34.804 117.876C35.0277 118.164 35.3473 118.325 35.7628 118.325C36.2103 118.325 36.5778 118.132 36.8654 117.732C37.1531 117.332 37.2969 116.627 37.2969 115.619V110.239H41.0522V121.431Z" fill="white"/>
<path d="M54.2355 116.9H46.693C46.7569 117.588 46.9327 118.101 47.1884 118.437C47.5559 118.917 48.0193 119.157 48.6106 119.157C48.9781 119.157 49.3297 119.045 49.6653 118.837C49.873 118.709 50.0807 118.469 50.3204 118.133L54.0278 118.517C53.4685 119.638 52.7813 120.454 51.9823 120.935C51.1834 121.431 50.0328 121.671 48.5307 121.671C47.2363 121.671 46.2136 121.463 45.4626 121.047C44.7115 120.63 44.1043 119.958 43.6089 119.061C43.1135 118.165 42.8738 117.076 42.8738 115.859C42.8738 114.114 43.3692 112.689 44.344 111.616C45.3187 110.543 46.677 109.999 48.4188 109.999C49.8251 109.999 50.9277 110.239 51.7427 110.719C52.5576 111.2 53.1808 111.904 53.5963 112.833C54.0278 113.745 54.2355 114.946 54.2355 116.419V116.9ZM50.4163 114.85C50.3364 114.018 50.1447 113.425 49.8251 113.073C49.5055 112.721 49.09 112.529 48.5786 112.529C47.9874 112.529 47.508 112.801 47.1404 113.345C46.9167 113.681 46.7729 114.178 46.709 114.85H50.4163Z" fill="white"/>
<path d="M55.3063 118.325L59.0456 117.925C59.2054 118.437 59.4132 118.789 59.7008 119.013C59.9725 119.237 60.34 119.334 60.8034 119.334C61.3148 119.334 61.6983 119.205 61.97 118.965C62.1777 118.789 62.2895 118.549 62.2895 118.277C62.2895 117.973 62.1457 117.732 61.8581 117.556C61.6504 117.428 61.123 117.284 60.2441 117.108C58.9338 116.852 58.0229 116.612 57.5275 116.387C57.0162 116.163 56.5847 115.795 56.2491 115.267C55.8976 114.738 55.7218 114.146 55.7218 113.473C55.7218 112.737 55.9136 112.096 56.2811 111.568C56.6486 111.04 57.176 110.639 57.8312 110.367C58.4863 110.111 59.3812 109.967 60.4838 109.967C61.6504 109.967 62.5133 110.063 63.0726 110.271C63.6319 110.479 64.0953 110.799 64.4628 111.216C64.8304 111.632 65.1499 112.224 65.3896 112.961L61.8261 113.361C61.7303 113.009 61.5864 112.737 61.3627 112.577C61.0591 112.353 60.7075 112.24 60.2921 112.24C59.8606 112.24 59.557 112.32 59.3652 112.497C59.1735 112.673 59.0776 112.881 59.0776 113.121C59.0776 113.393 59.2054 113.601 59.4451 113.746C59.6848 113.89 60.2281 114.018 61.0591 114.13C62.3055 114.29 63.2483 114.514 63.8556 114.802C64.4628 115.09 64.9262 115.507 65.2618 116.035C65.5814 116.564 65.7412 117.156 65.7412 117.796C65.7412 118.437 65.5654 119.061 65.2299 119.686C64.8943 120.294 64.351 120.775 63.6159 121.143C62.8808 121.511 61.8741 121.687 60.6117 121.687C58.8219 121.687 57.5435 121.399 56.7765 120.807C56.0094 120.23 55.5301 119.398 55.3063 118.325Z" fill="white"/>
<path d="M72.0851 105.996V110.255H74.1625V113.393H72.0851V117.364C72.0851 117.844 72.133 118.165 72.2129 118.309C72.3408 118.549 72.5485 118.661 72.8681 118.661C73.1397 118.661 73.5393 118.565 74.0346 118.389L74.3063 121.351C73.3635 121.575 72.4846 121.687 71.6856 121.687C70.7428 121.687 70.0556 121.543 69.6082 121.271C69.1608 120.999 68.8412 120.582 68.6174 120.022C68.4097 119.462 68.2978 118.565 68.2978 117.316V113.377H66.9076V110.239H68.2978V108.189L72.0851 105.996Z" fill="white"/>
<path d="M79.372 113.873L75.7765 113.441C75.9043 112.721 76.1121 112.16 76.3678 111.744C76.6234 111.328 76.991 110.975 77.4704 110.671C77.8219 110.447 78.2853 110.287 78.8926 110.159C79.4998 110.047 80.155 109.983 80.8581 109.983C81.9927 109.983 82.8875 110.047 83.5747 110.191C84.2618 110.335 84.8371 110.639 85.2845 111.087C85.6041 111.408 85.8598 111.856 86.0356 112.432C86.2273 113.009 86.3072 113.569 86.3072 114.098V119.045C86.3072 119.574 86.3392 119.99 86.4031 120.278C86.467 120.582 86.5949 120.951 86.7866 121.415H83.2551C83.1113 121.127 83.0154 120.902 82.9834 120.758C82.9355 120.614 82.9035 120.374 82.8556 120.054C82.3602 120.598 81.8648 120.983 81.3854 121.207C80.7143 121.511 79.9472 121.671 79.0684 121.671C77.9018 121.671 77.007 121.367 76.3997 120.742C75.7925 120.118 75.4889 119.365 75.4889 118.453C75.4889 117.604 75.7126 116.9 76.144 116.355C76.5755 115.811 77.3905 115.395 78.573 115.138C79.9792 114.818 80.906 114.594 81.3215 114.466C81.737 114.338 82.1844 114.162 82.6479 113.954C82.6479 113.425 82.552 113.057 82.3602 112.849C82.1685 112.641 81.8329 112.528 81.3535 112.528C80.7303 112.528 80.2828 112.641 79.9632 112.865C79.7235 113.057 79.5318 113.393 79.372 113.873ZM82.6319 116.131C82.1205 116.339 81.5772 116.531 81.0179 116.691C80.2509 116.916 79.7715 117.156 79.5637 117.38C79.356 117.604 79.2441 117.876 79.2441 118.165C79.2441 118.501 79.34 118.773 79.5477 118.997C79.7555 119.221 80.0591 119.317 80.4586 119.317C80.8741 119.317 81.2736 119.205 81.6251 118.965C81.9927 118.741 82.2484 118.453 82.3922 118.116C82.536 117.78 82.6159 117.348 82.6159 116.82V116.131H82.6319Z" fill="white"/>
<path d="M94.9366 110.255H98.4522V111.888C98.9636 111.2 99.4749 110.719 99.9863 110.431C100.498 110.143 101.121 109.999 101.856 109.999C102.639 109.999 103.262 110.159 103.726 110.479C104.189 110.799 104.557 111.264 104.844 111.888C105.435 111.152 105.979 110.655 106.458 110.399C106.938 110.127 107.545 109.999 108.264 109.999C109.319 109.999 110.134 110.351 110.725 111.072C111.316 111.792 111.604 112.897 111.604 114.418V121.447H107.832V115.074C107.832 114.562 107.753 114.194 107.577 113.954C107.321 113.569 107.017 113.377 106.634 113.377C106.186 113.377 105.835 113.553 105.563 113.922C105.292 114.29 105.164 114.866 105.164 115.683V121.463H101.393V115.299C101.393 114.802 101.361 114.466 101.313 114.306C101.233 114.018 101.089 113.794 100.897 113.633C100.705 113.457 100.466 113.377 100.194 113.377C99.7626 113.377 99.411 113.569 99.1234 113.938C98.8517 114.306 98.7079 114.914 98.7079 115.779V121.495H94.9366V110.255Z" fill="white"/>
<path d="M124.755 116.9H117.213C117.276 117.588 117.436 118.101 117.708 118.437C118.075 118.917 118.539 119.157 119.13 119.157C119.498 119.157 119.849 119.045 120.185 118.837C120.393 118.709 120.6 118.469 120.84 118.133L124.547 118.517C123.988 119.638 123.301 120.454 122.502 120.935C121.703 121.431 120.552 121.671 119.05 121.671C117.756 121.671 116.733 121.463 115.982 121.047C115.231 120.63 114.624 119.958 114.128 119.061C113.633 118.165 113.393 117.076 113.393 115.859C113.393 114.114 113.889 112.689 114.863 111.616C115.838 110.543 117.197 109.999 118.938 109.999C120.345 109.999 121.447 110.239 122.262 110.719C123.077 111.2 123.7 111.904 124.116 112.833C124.547 113.745 124.755 114.946 124.755 116.419V116.9ZM120.92 114.85C120.84 114.018 120.648 113.425 120.329 113.073C120.009 112.721 119.594 112.529 119.082 112.529C118.475 112.529 118.012 112.801 117.644 113.345C117.42 113.681 117.276 114.178 117.213 114.85H120.92Z" fill="white"/>
<path d="M126.481 110.255H129.981V112.08C130.508 111.344 131.035 110.799 131.579 110.479C132.106 110.159 132.761 109.999 133.544 109.999C134.583 109.999 135.398 110.351 135.989 111.056C136.58 111.76 136.868 112.849 136.868 114.322V121.431H133.081V115.283C133.081 114.578 132.969 114.082 132.745 113.793C132.521 113.505 132.202 113.361 131.786 113.361C131.323 113.361 130.955 113.553 130.684 113.954C130.412 114.354 130.252 115.058 130.252 116.067V121.447H126.497V110.255H126.481Z" fill="white"/>
<path d="M138.642 115.875C138.642 114.162 139.153 112.769 140.16 111.648C141.167 110.543 142.541 109.983 144.251 109.983C146.216 109.983 147.702 110.639 148.709 111.936C149.524 112.977 149.924 114.274 149.924 115.811C149.924 117.524 149.428 118.949 148.421 120.038C147.415 121.143 146.04 121.687 144.267 121.687C142.685 121.687 141.406 121.223 140.431 120.31C139.249 119.19 138.642 117.7 138.642 115.875ZM142.413 115.859C142.413 116.852 142.589 117.588 142.94 118.069C143.292 118.549 143.739 118.789 144.283 118.789C144.826 118.789 145.273 118.549 145.625 118.085C145.976 117.62 146.152 116.852 146.152 115.811C146.152 114.834 145.976 114.114 145.625 113.65C145.273 113.169 144.842 112.945 144.315 112.945C143.771 112.945 143.308 113.185 142.956 113.666C142.605 114.146 142.413 114.882 142.413 115.859Z" fill="white"/>
<path d="M151.074 118.325L154.813 117.925C154.973 118.437 155.181 118.789 155.468 119.013C155.756 119.237 156.124 119.334 156.571 119.334C157.082 119.334 157.466 119.205 157.738 118.965C157.961 118.789 158.057 118.549 158.057 118.277C158.057 117.973 157.913 117.732 157.626 117.556C157.418 117.428 156.891 117.284 156.012 117.108C154.701 116.852 153.791 116.612 153.295 116.387C152.8 116.163 152.352 115.795 152.017 115.267C151.665 114.738 151.489 114.146 151.489 113.473C151.489 112.737 151.681 112.096 152.049 111.568C152.432 111.04 152.944 110.639 153.599 110.367C154.254 110.111 155.149 109.967 156.251 109.967C157.418 109.967 158.281 110.063 158.84 110.271C159.399 110.479 159.863 110.799 160.23 111.216C160.598 111.632 160.918 112.224 161.157 112.961L157.594 113.361C157.498 113.009 157.354 112.737 157.13 112.577C156.843 112.353 156.475 112.24 156.06 112.24C155.628 112.24 155.325 112.32 155.133 112.497C154.941 112.673 154.845 112.881 154.845 113.121C154.845 113.393 154.973 113.601 155.213 113.746C155.452 113.89 155.996 114.018 156.827 114.13C158.073 114.29 159.016 114.514 159.623 114.802C160.23 115.09 160.694 115.507 161.029 116.035C161.349 116.564 161.509 117.156 161.509 117.796C161.509 118.437 161.333 119.061 160.997 119.686C160.662 120.294 160.119 120.775 159.383 121.143C158.648 121.511 157.642 121.687 156.363 121.687C154.574 121.687 153.295 121.399 152.528 120.807C151.777 120.23 151.282 119.398 151.074 118.325Z" fill="white"/>
</svg>
